<svg xmlns="http://www.w3.org/2000/svg" viewBox="150 425.19 700 149.61"><defs/><path fill="#ffffff" transform="matrix(0.3458491072145848 0 0 0.3458491072145848 23.156941604603695 24.447106305936675)" d="M 501.25838031496 1204.32998785827 L 392.35838031496 1313.22998785827 C 375.85838031496 1329.72998785827 366.75838031496 1351.72998785827 366.75838031496 1375.02998785827 C 366.75838031496 1394.52998785827 372.95838031496 1412.82998785827 384.85838031496 1428.22998785827 L 395.65838031496 1442.32998785827 L 567.45838031496 1270.52998785827 L 501.25838031496 1204.32998785827 Z"/><path fill="#777777" transform="matrix(0.3458491072145848 0 0 0.3458491072145848 23.156941604603695 24.447106305936675)" d="M 478.45838031496 1390.62998785827 L 412.25838031496 1456.82998785827 L 521.15838031496 1565.72998785827 C 537.65838031496 1582.22998785827 559.65838031496 1591.32998785827 582.95838031496 1591.32998785827 C 602.35838031496 1591.32998785827 620.75838031496 1585.12998785827 636.15838031496 1573.32998785827 L 650.25838031496 1562.52998785827 L 478.45838031496 1390.62998785827 Z"/><path fill="#ffffff" transform="matrix(0.3458491072145848 0 0 0.3458491072145848 23.156941604603695 24.447106305936675)" d="M 781.35838031496 1321.82998785827 L 770.55838031496 1307.72998785827 L 598.65838031496 1479.62998785827 L 664.85838031496 1545.82998785827 L 773.75838031496 1436.92998785827 C 790.25838031496 1420.42998785827 799.35838031496 1398.42998785827 799.35838031496 1375.12998785827 C 799.35838031496 1355.62998785827 793.15838031496 1337.22998785827 781.35838031496 1321.82998785827 Z"/><path fill="#777777" transform="matrix(0.3458491072145848 0 0 0.3458491072145848 23.156941604603695 24.447106305936675)" d="M 753.75838031496 1293.22998785827 L 644.85838031496 1184.32998785827 C 628.35838031496 1167.82998785827 606.35838031496 1158.72998785827 583.05838031496 1158.72998785827 C 563.55838031496 1158.72998785827 545.25838031496 1164.92998785827 529.85838031496 1176.72998785827 L 515.75838031496 1187.52998785827 L 687.55838031496 1359.32998785827 L 753.75838031496 1293.22998785827 Z"/><path id="text" fill="#ffffff" transform="matrix(1.0226263381796084 0 0 1.0226263381796084 210.86631761020988 74.65302155111964)" d="M 119.26439314286 451.07187273143 C 118.94439314286 450.75187273143 118.78439314286 450.33587273143 118.78439314286 449.82387273143 L 118.78439314286 382.33587273143 C 118.78439314286 381.69587273143 118.96039314286 381.19987273143 119.31239314286 380.84787273143 C 119.66439314286 380.49587273143 120.12839314286 380.31987273143 120.70439314286 380.31987273143 L 146.72039314286 380.31987273143 C 156.12839314286 380.31987273143 163.31239314286 381.90387273143 168.27239314286 385.07187273143 C 173.23239314286 388.23987273143 175.71239314286 392.89587273143 175.71239314286 399.03987273143 C 175.71239314286 402.62387273143 174.75239314286 405.64787273143 172.83239314286 408.11187273143 C 170.91239314286 410.57587273143 167.68039314286 412.73587273143 163.13639314286 414.59187273143 C 162.94439314286 414.65587273143 162.84839314286 414.78387273143 162.84839314286 414.97587273143 C 162.84839314286 415.16787273143 162.94439314286 415.29587273143 163.13639314286 415.35987273143 C 168.12839314286 417.02387273143 171.76039314286 419.18387273143 174.03239314286 421.83987273143 C 176.30439314286 424.49587273143 177.44039314286 427.96787273143 177.44039314286 432.25587273143 C 177.44039314286 438.78387273143 174.99239314286 443.63187273143 170.09639314286 446.79987273143 C 165.20039314286 449.96787273143 157.82439314286 451.55187273143 147.96839314286 451.55187273143 L 120.60839314286 451.55187273143 C 120.03239314286 451.55187273143 119.58439314286 451.39187273143 119.26439314286 451.07187273143 Z M 148.16039314286 409.69587273143 C 151.29639314286 409.69587273143 153.90439314286 408.94387273143 155.98439314286 407.43987273143 C 158.06439314286 405.93587273143 159.10439314286 403.77587273143 159.10439314286 400.95987273143 C 159.10439314286 398.01587273143 158.01639314286 395.72787273143 155.84039314286 394.09587273143 C 153.66439314286 392.46387273143 150.81639314286 391.64787273143 147.29639314286 391.64787273143 L 137.40839314286 391.64787273143 C 136.76839314286 391.64787273143 136.30439314286 391.77587273143 136.01639314286 392.03187273143 C 135.72839314286 392.28787273143 135.58439314286 392.70387273143 135.58439314286 393.27987273143 L 135.58439314286 407.96787273143 C 135.58439314286 408.60787273143 135.68039314286 409.05587273143 135.87239314286 409.31187273143 C 136.06439314286 409.56787273143 136.41639314286 409.69587273143 136.92839314286 409.69587273143 L 148.16039314286 409.69587273143 Z M 147.48839314286 440.22387273143 C 151.58439314286 440.22387273143 154.68839314286 439.37587273143 156.80039314286 437.67987273143 C 158.91239314286 435.98387273143 159.96839314286 433.66387273143 159.96839314286 430.71987273143 C 159.96839314286 427.77587273143 158.88039314286 425.48787273143 156.70439314286 423.85587273143 C 154.52839314286 422.22387273143 151.68039314286 421.40787273143 148.16039314286 421.40787273143 L 137.40839314286 421.40787273143 C 136.70439314286 421.40787273143 136.22439314286 421.51987273143 135.96839314286 421.74387273143 C 135.71239314286 421.96787273143 135.58439314286 422.39987273143 135.58439314286 423.03987273143 L 135.58439314286 438.39987273143 C 135.58439314286 439.03987273143 135.68039314286 439.50387273143 135.87239314286 439.79187273143 C 136.06439314286 440.07987273143 136.41639314286 440.22387273143 136.92839314286 440.22387273143 L 147.48839314286 440.22387273143 Z M 201.20039314286 448.14387273143 C 196.24039314286 445.23187273143 192.43239314286 441.05587273143 189.77639314286 435.61587273143 C 187.12039314286 430.17587273143 185.79239314286 423.71187273143 185.79239314286 416.22387273143 C 185.79239314286 408.67187273143 187.13639314286 402.12787273143 189.82439314286 396.59187273143 C 192.51239314286 391.05587273143 196.33639314286 386.79987273143 201.29639314286 383.82387273143 C 206.25639314286 380.84787273143 212.06439314286 379.35987273143 218.72039314286 379.35987273143 C 225.31239314286 379.35987273143 231.07239314286 380.84787273143 236.00039314286 383.82387273143 C 240.92839314286 386.79987273143 244.73639314286 391.05587273143 247.42439314286 396.59187273143 C 250.11239314286 402.12787273143 251.45639314286 408.63987273143 251.45639314286 416.12787273143 C 251.45639314286 423.55187273143 250.12839314286 429.99987273143 247.47239314286 435.47187273143 C 244.81639314286 440.94387273143 241.02439314286 445.15187273143 236.09639314286 448.09587273143 C 231.16839314286 451.03987273143 225.37639314286 452.51187273143 218.72039314286 452.51187273143 C 212.00039314286 452.51187273143 206.16039314286 451.05587273143 201.20039314286 448.14387273143 Z M 230.28839314286 434.94387273143 C 232.68839314286 431.10387273143 233.88839314286 424.89587273143 233.88839314286 416.31987273143 C 233.88839314286 407.55187273143 232.65639314286 401.15187273143 230.19239314286 397.11987273143 C 227.72839314286 393.08787273143 223.90439314286 391.07187273143 218.72039314286 391.07187273143 C 213.40839314286 391.07187273143 209.52039314286 393.08787273143 207.05639314286 397.11987273143 C 204.59239314286 401.15187273143 203.36039314286 407.55187273143 203.36039314286 416.31987273143 C 203.36039314286 424.89587273143 204.57639314286 431.10387273143 207.00839314286 434.94387273143 C 209.44039314286 438.78387273143 213.34439314286 440.70387273143 218.72039314286 440.70387273143 C 224.03239314286 440.70387273143 227.88839314286 438.78387273143 230.28839314286 434.94387273143 Z M 254.33639314286 449.91987273143 C 254.33639314286 449.40787273143 254.40039314286 449.02387273143 254.52839314286 448.76787273143 L 278.43239314286 382.23987273143 C 278.68839314286 381.53587273143 278.99239314286 381.03987273143 279.34439314286 380.75187273143 C 279.69639314286 380.46387273143 280.22439314286 380.31987273143 280.92839314286 380.31987273143 L 295.32839314286 380.31987273143 C 296.03239314286 380.31987273143 296.64039314286 380.51187273143 297.15239314286 380.89587273143 C 297.66439314286 381.27987273143 298.01639314286 381.79187273143 298.20839314286 382.43187273143 L 321.92039314286 448.95987273143 C 322.04839314286 449.34387273143 322.11239314286 449.63187273143 322.11239314286 449.82387273143 C 322.11239314286 450.33587273143 322.00039314286 450.75187273143 321.77639314286 451.07187273143 C 321.55239314286 451.39187273143 321.21639314286 451.55187273143 320.76839314286 451.55187273143 L 306.65639314286 451.55187273143 C 305.69639314286 451.55187273143 305.08839314286 451.10387273143 304.83239314286 450.20787273143 L 299.84039314286 436.19187273143 C 299.71239314286 435.80787273143 299.56839314286 435.53587273143 299.40839314286 435.37587273143 C 299.24839314286 435.21587273143 298.97639314286 435.13587273143 298.59239314286 435.13587273143 L 275.16839314286 435.13587273143 C 274.52839314286 435.13587273143 274.11239314286 435.45587273143 273.92039314286 436.09587273143 L 268.83239314286 450.30387273143 C 268.44839314286 451.13587273143 267.77639314286 451.55187273143 266.81639314286 451.55187273143 L 255.77639314286 451.55187273143 C 254.81639314286 451.55187273143 254.33639314286 451.00787273143 254.33639314286 449.91987273143 Z M 294.65639314286 422.36787273143 C 295.29639314286 422.36787273143 295.61639314286 422.11187273143 295.61639314286 421.59987273143 C 295.61639314286 421.21587273143 295.58439314286 420.92787273143 295.52039314286 420.73587273143 L 287.45639314286 398.27187273143 C 287.26439314286 397.88787273143 287.04039314286 397.69587273143 286.78439314286 397.69587273143 C 286.59239314286 397.69587273143 286.40039314286 397.91987273143 286.20839314286 398.36787273143 L 278.04839314286 420.73587273143 C 277.92039314286 421.11987273143 277.85639314286 421.40787273143 277.85639314286 421.59987273143 C 277.85639314286 422.11187273143 278.20839314286 422.36787273143 278.91239314286 422.36787273143 L 294.65639314286 422.36787273143 Z M 389.88839314286 449.82387273143 C 389.88839314286 450.33587273143 389.72839314286 450.75187273143 389.40839314286 451.07187273143 C 389.08839314286 451.39187273143 388.70439314286 451.55187273143 388.25639314286 451.55187273143 L 374.14439314286 451.55187273143 C 373.05639314286 451.55187273143 372.35239314286 450.97587273143 372.03239314286 449.82387273143 L 361.66439314286 422.94387273143 C 361.47239314286 422.43187273143 361.18439314286 422.07987273143 360.80039314286 421.88787273143 C 360.41639314286 421.69587273143 359.80839314286 421.59987273143 358.97639314286 421.59987273143 L 349.85639314286 421.59987273143 C 349.47239314286 421.59987273143 349.18439314286 421.71187273143 348.99239314286 421.93587273143 C 348.80039314286 422.15987273143 348.70439314286 422.39987273143 348.70439314286 422.65587273143 L 348.70439314286 449.24787273143 C 348.70439314286 450.07987273143 348.49639314286 450.67187273143 348.08039314286 451.02387273143 C 347.66439314286 451.37587273143 347.00839314286 451.55187273143 346.11239314286 451.55187273143 L 333.92039314286 451.55187273143 C 333.15239314286 451.55187273143 332.62439314286 451.39187273143 332.33639314286 451.07187273143 C 332.04839314286 450.75187273143 331.90439314286 450.27187273143 331.90439314286 449.63187273143 L 331.90439314286 382.14387273143 C 331.90439314286 380.92787273143 332.41639314286 380.31987273143 333.44039314286 380.31987273143 L 363.39239314286 380.31987273143 C 372.03239314286 380.31987273143 378.72039314286 382.01587273143 383.45639314286 385.40787273143 C 388.19239314286 388.79987273143 390.56039314286 393.63187273143 390.56039314286 399.90387273143 C 390.56039314286 404.57587273143 389.31239314286 408.55987273143 386.81639314286 411.85587273143 C 384.32039314286 415.15187273143 381.18439314286 417.47187273143 377.40839314286 418.81587273143 C 376.89639314286 419.00787273143 376.76839314286 419.48787273143 377.02439314286 420.25587273143 L 389.69639314286 448.95987273143 C 389.82439314286 449.34387273143 389.88839314286 449.63187273143 389.88839314286 449.82387273143 Z M 370.30439314286 407.91987273143 C 372.22439314286 406.35187273143 373.18439314286 404.06387273143 373.18439314286 401.05587273143 C 373.18439314286 397.98387273143 372.20839314286 395.63187273143 370.25639314286 393.99987273143 C 368.30439314286 392.36787273143 365.66439314286 391.55187273143 362.33639314286 391.55187273143 L 350.52839314286 391.55187273143 C 349.82439314286 391.55187273143 349.34439314286 391.66387273143 349.08839314286 391.88787273143 C 348.83239314286 392.11187273143 348.70439314286 392.51187273143 348.70439314286 393.08787273143 L 348.70439314286 408.63987273143 C 348.70439314286 409.21587273143 348.80039314286 409.63187273143 348.99239314286 409.88787273143 C 349.18439314286 410.14387273143 349.53639314286 410.27187273143 350.04839314286 410.27187273143 L 361.85639314286 410.27187273143 C 365.56839314286 410.27187273143 368.38439314286 409.48787273143 370.30439314286 407.91987273143 Z M 424.73639314286 380.41587273143 C 437.40839314286 380.79987273143 446.84839314286 384.03187273143 453.05639314286 390.11187273143 C 459.26439314286 396.19187273143 462.36839314286 404.70387273143 462.36839314286 415.64787273143 C 462.36839314286 426.91187273143 459.13639314286 435.71187273143 452.67239314286 442.04787273143 C 446.20839314286 448.38387273143 436.73639314286 451.55187273143 424.25639314286 451.55187273143 L 403.42439314286 451.55187273143 C 402.65639314286 451.55187273143 402.09639314286 451.37587273143 401.74439314286 451.02387273143 C 401.39239314286 450.67187273143 401.21639314286 450.07987273143 401.21639314286 449.24787273143 L 401.21639314286 382.23987273143 C 401.21639314286 381.53587273143 401.37639314286 381.03987273143 401.69639314286 380.75187273143 C 402.01639314286 380.46387273143 402.56039314286 380.31987273143 403.32839314286 380.31987273143 C 413.88839314286 380.31987273143 421.02439314286 380.35187273143 424.73639314286 380.41587273143 Z M 418.01639314286 393.56787273143 L 418.01639314286 438.39987273143 C 418.01639314286 438.91187273143 418.09639314286 439.26387273143 418.25639314286 439.45587273143 C 418.41639314286 439.64787273143 418.75239314286 439.74387273143 419.26439314286 439.74387273143 L 421.08839314286 439.74387273143 C 429.15239314286 439.74387273143 435.12039314286 437.87187273143 438.99239314286 434.12787273143 C 442.86439314286 430.38387273143 444.80039314286 424.19187273143 444.80039314286 415.55187273143 C 444.80039314286 407.55187273143 443.16839314286 401.79187273143 439.90439314286 398.27187273143 C 436.64039314286 394.75187273143 431.58439314286 392.79987273143 424.73639314286 392.41587273143 L 418.88039314286 392.22387273143 C 418.30439314286 392.22387273143 418.01639314286 392.67187273143 418.01639314286 393.56787273143 Z M 488.57639314286 380.31987273143 C 489.60039314286 380.31987273143 490.11239314286 380.89587273143 490.11239314286 382.04787273143 L 490.11239314286 449.24787273143 C 490.11239314286 450.07987273143 489.92039314286 450.67187273143 489.53639314286 451.02387273143 C 489.15239314286 451.37587273143 488.48039314286 451.55187273143 487.52039314286 451.55187273143 L 475.42439314286 451.55187273143 C 474.65639314286 451.55187273143 474.11239314286 451.39187273143 473.79239314286 451.07187273143 C 473.47239314286 450.75187273143 473.31239314286 450.23987273143 473.31239314286 449.53587273143 L 473.31239314286 382.14387273143 C 473.31239314286 380.92787273143 473.82439314286 380.31987273143 474.84839314286 380.31987273143 L 488.57639314286 380.31987273143 Z M 505.08839314286 380.31987273143 L 552.70439314286 380.31987273143 C 553.66439314286 380.31987273143 554.14439314286 380.86387273143 554.14439314286 381.95187273143 L 554.04839314286 390.59187273143 C 554.04839314286 391.93587273143 553.40839314286 392.60787273143 552.12839314286 392.60787273143 L 522.17639314286 392.60787273143 C 521.53639314286 392.60787273143 521.07239314286 392.73587273143 520.78439314286 392.99187273143 C 520.49639314286 393.24787273143 520.35239314286 393.63187273143 520.35239314286 394.14387273143 L 520.35239314286 409.02387273143 C 520.35239314286 410.04787273143 520.83239314286 410.55987273143 521.79239314286 410.55987273143 L 542.62439314286 410.55987273143 C 543.64839314286 410.55987273143 544.16039314286 411.07187273143 544.16039314286 412.09587273143 L 544.16039314286 421.21587273143 C 544.16039314286 422.11187273143 543.68039314286 422.55987273143 542.72039314286 422.55987273143 L 521.69639314286 422.55987273143 C 520.80039314286 422.55987273143 520.35239314286 422.97587273143 520.35239314286 423.80787273143 L 520.35239314286 449.34387273143 C 520.35239314286 450.17587273143 520.16039314286 450.75187273143 519.77639314286 451.07187273143 C 519.39239314286 451.39187273143 518.75239314286 451.55187273143 517.85639314286 451.55187273143 L 505.66439314286 451.55187273143 C 504.89639314286 451.55187273143 504.35239314286 451.39187273143 504.03239314286 451.07187273143 C 503.71239314286 450.75187273143 503.55239314286 450.23987273143 503.55239314286 449.53587273143 L 503.55239314286 382.14387273143 C 503.55239314286 380.92787273143 504.06439314286 380.31987273143 505.08839314286 380.31987273143 Z M 624.99239314286 381.27987273143 C 624.99239314286 381.53587273143 624.89639314286 381.85587273143 624.70439314286 382.23987273143 L 602.14439314286 419.19987273143 C 601.76039314286 419.77587273143 601.53639314286 420.33587273143 601.47239314286 420.87987273143 C 601.40839314286 421.42387273143 601.37639314286 422.55987273143 601.37639314286 424.28787273143 L 601.37639314286 449.24787273143 C 601.37639314286 450.78387273143 600.48039314286 451.55187273143 598.68839314286 451.55187273143 L 586.68839314286 451.55187273143 C 585.92039314286 451.55187273143 585.37639314286 451.39187273143 585.05639314286 451.07187273143 C 584.73639314286 450.75187273143 584.57639314286 450.23987273143 584.57639314286 449.53587273143 L 584.57639314286 423.71187273143 C 584.57639314286 422.94387273143 584.49639314286 422.35187273143 584.33639314286 421.93587273143 C 584.17639314286 421.51987273143 583.87239314286 420.92787273143 583.42439314286 420.15987273143 L 560.67239314286 382.52787273143 C 560.41639314286 382.01587273143 560.28839314286 381.66387273143 560.28839314286 381.47187273143 C 560.28839314286 381.15187273143 560.44839314286 380.87987273143 560.76839314286 380.65587273143 C 561.08839314286 380.43187273143 561.53639314286 380.31987273143 562.11239314286 380.31987273143 L 576.51239314286 380.31987273143 C 577.28039314286 380.31987273143 577.85639314286 380.43187273143 578.24039314286 380.65587273143 C 578.62439314286 380.87987273143 578.97639314286 381.34387273143 579.29639314286 382.04787273143 L 593.50439314286 407.00787273143 C 593.88839314286 407.71187273143 594.20839314286 408.06387273143 594.46439314286 408.06387273143 C 594.78439314286 408.06387273143 595.07239314286 407.77587273143 595.32839314286 407.19987273143 L 609.34439314286 382.04787273143 C 609.72839314286 381.34387273143 610.09639314286 380.87987273143 610.44839314286 380.65587273143 C 610.80039314286 380.43187273143 611.36039314286 380.31987273143 612.12839314286 380.31987273143 L 623.64839314286 380.31987273143 C 624.54439314286 380.31987273143 624.99239314286 380.63987273143 624.99239314286 381.27987273143 Z"/></svg>